<mxfile host="app.diagrams.net" modified="2023-11-25T13:37:05.487Z" agent="Mozilla/5.0 (Windows NT 10.0; Win64; x64) AppleWebKit/537.36 (KHTML, like Gecko) Chrome/119.0.0.0 Safari/537.36" etag="knQhVpD8RpUt4Sb4JkjU" version="22.1.4" type="github">
  <diagram name="第 1 页" id="Y8QwhxB2ddYxtrrH_sL3">
    <mxGraphModel dx="2901" dy="1106" grid="1" gridSize="10" guides="1" tooltips="1" connect="1" arrows="1" fold="1" page="1" pageScale="1" pageWidth="827" pageHeight="1169" math="0" shadow="0">
      <root>
        <mxCell id="0" />
        <mxCell id="1" parent="0" />
        <mxCell id="cvXlnHGQ_inCsWtSrldZ-13" value="" style="edgeStyle=orthogonalEdgeStyle;rounded=0;orthogonalLoop=1;jettySize=auto;html=1;" edge="1" parent="1" source="cvXlnHGQ_inCsWtSrldZ-9" target="cvXlnHGQ_inCsWtSrldZ-12">
          <mxGeometry relative="1" as="geometry" />
        </mxCell>
        <mxCell id="cvXlnHGQ_inCsWtSrldZ-9" value="收果的人" style="shape=umlActor;verticalLabelPosition=bottom;verticalAlign=top;html=1;outlineConnect=0;" vertex="1" parent="1">
          <mxGeometry x="-240" y="300" width="30" height="60" as="geometry" />
        </mxCell>
        <mxCell id="cvXlnHGQ_inCsWtSrldZ-17" style="edgeStyle=orthogonalEdgeStyle;rounded=0;orthogonalLoop=1;jettySize=auto;html=1;" edge="1" parent="1" source="cvXlnHGQ_inCsWtSrldZ-12" target="cvXlnHGQ_inCsWtSrldZ-16">
          <mxGeometry relative="1" as="geometry" />
        </mxCell>
        <mxCell id="cvXlnHGQ_inCsWtSrldZ-21" style="edgeStyle=orthogonalEdgeStyle;rounded=0;orthogonalLoop=1;jettySize=auto;html=1;" edge="1" parent="1" source="cvXlnHGQ_inCsWtSrldZ-12" target="cvXlnHGQ_inCsWtSrldZ-20">
          <mxGeometry relative="1" as="geometry">
            <Array as="points">
              <mxPoint x="90" y="330" />
              <mxPoint x="90" y="460" />
            </Array>
          </mxGeometry>
        </mxCell>
        <mxCell id="cvXlnHGQ_inCsWtSrldZ-23" style="edgeStyle=orthogonalEdgeStyle;rounded=0;orthogonalLoop=1;jettySize=auto;html=1;" edge="1" parent="1" source="cvXlnHGQ_inCsWtSrldZ-12" target="cvXlnHGQ_inCsWtSrldZ-22">
          <mxGeometry relative="1" as="geometry">
            <Array as="points">
              <mxPoint x="90" y="330" />
              <mxPoint x="90" y="180" />
            </Array>
          </mxGeometry>
        </mxCell>
        <mxCell id="cvXlnHGQ_inCsWtSrldZ-24" value="电话通知" style="edgeLabel;html=1;align=center;verticalAlign=middle;resizable=0;points=[];" vertex="1" connectable="0" parent="cvXlnHGQ_inCsWtSrldZ-23">
          <mxGeometry x="-0.7876" y="-1" relative="1" as="geometry">
            <mxPoint x="19" y="-1" as="offset" />
          </mxGeometry>
        </mxCell>
        <mxCell id="cvXlnHGQ_inCsWtSrldZ-12" value="开车到达点位" style="whiteSpace=wrap;html=1;verticalAlign=top;" vertex="1" parent="1">
          <mxGeometry x="-145" y="300" width="120" height="60" as="geometry" />
        </mxCell>
        <mxCell id="cvXlnHGQ_inCsWtSrldZ-29" style="edgeStyle=orthogonalEdgeStyle;rounded=0;orthogonalLoop=1;jettySize=auto;html=1;entryX=0;entryY=0.5;entryDx=0;entryDy=0;" edge="1" parent="1" source="cvXlnHGQ_inCsWtSrldZ-16" target="cvXlnHGQ_inCsWtSrldZ-27">
          <mxGeometry relative="1" as="geometry" />
        </mxCell>
        <mxCell id="cvXlnHGQ_inCsWtSrldZ-16" value="果农" style="shape=umlActor;verticalLabelPosition=bottom;verticalAlign=top;html=1;outlineConnect=0;" vertex="1" parent="1">
          <mxGeometry x="160" y="300" width="30" height="60" as="geometry" />
        </mxCell>
        <mxCell id="cvXlnHGQ_inCsWtSrldZ-30" style="edgeStyle=orthogonalEdgeStyle;rounded=0;orthogonalLoop=1;jettySize=auto;html=1;entryX=0;entryY=0.5;entryDx=0;entryDy=0;" edge="1" parent="1" source="cvXlnHGQ_inCsWtSrldZ-20" target="cvXlnHGQ_inCsWtSrldZ-27">
          <mxGeometry relative="1" as="geometry" />
        </mxCell>
        <mxCell id="cvXlnHGQ_inCsWtSrldZ-20" value="Actor" style="shape=umlActor;verticalLabelPosition=bottom;verticalAlign=top;html=1;outlineConnect=0;" vertex="1" parent="1">
          <mxGeometry x="160" y="430" width="30" height="60" as="geometry" />
        </mxCell>
        <mxCell id="cvXlnHGQ_inCsWtSrldZ-28" value="" style="edgeStyle=orthogonalEdgeStyle;rounded=0;orthogonalLoop=1;jettySize=auto;html=1;entryX=0;entryY=0.5;entryDx=0;entryDy=0;" edge="1" parent="1" source="cvXlnHGQ_inCsWtSrldZ-22" target="cvXlnHGQ_inCsWtSrldZ-27">
          <mxGeometry relative="1" as="geometry" />
        </mxCell>
        <mxCell id="cvXlnHGQ_inCsWtSrldZ-31" value="搬运到点位" style="edgeLabel;html=1;align=center;verticalAlign=middle;resizable=0;points=[];" vertex="1" connectable="0" parent="cvXlnHGQ_inCsWtSrldZ-28">
          <mxGeometry x="0.5318" y="-3" relative="1" as="geometry">
            <mxPoint as="offset" />
          </mxGeometry>
        </mxCell>
        <mxCell id="cvXlnHGQ_inCsWtSrldZ-22" value="果农" style="shape=umlActor;verticalLabelPosition=bottom;verticalAlign=top;html=1;outlineConnect=0;" vertex="1" parent="1">
          <mxGeometry x="160" y="150" width="30" height="60" as="geometry" />
        </mxCell>
        <mxCell id="cvXlnHGQ_inCsWtSrldZ-33" value="" style="edgeStyle=orthogonalEdgeStyle;rounded=0;orthogonalLoop=1;jettySize=auto;html=1;" edge="1" parent="1" source="cvXlnHGQ_inCsWtSrldZ-27" target="cvXlnHGQ_inCsWtSrldZ-35">
          <mxGeometry relative="1" as="geometry">
            <mxPoint x="680" y="330" as="targetPoint" />
          </mxGeometry>
        </mxCell>
        <mxCell id="cvXlnHGQ_inCsWtSrldZ-34" value="交易" style="edgeLabel;html=1;align=center;verticalAlign=middle;resizable=0;points=[];" vertex="1" connectable="0" parent="cvXlnHGQ_inCsWtSrldZ-33">
          <mxGeometry x="-0.025" y="-2" relative="1" as="geometry">
            <mxPoint as="offset" />
          </mxGeometry>
        </mxCell>
        <mxCell id="cvXlnHGQ_inCsWtSrldZ-27" value="称重" style="whiteSpace=wrap;html=1;verticalAlign=top;" vertex="1" parent="1">
          <mxGeometry x="480" y="300" width="120" height="60" as="geometry" />
        </mxCell>
        <mxCell id="cvXlnHGQ_inCsWtSrldZ-35" value="Actor" style="shape=umlActor;verticalLabelPosition=bottom;verticalAlign=top;html=1;outlineConnect=0;" vertex="1" parent="1">
          <mxGeometry x="710" y="300" width="30" height="60" as="geometry" />
        </mxCell>
        <mxCell id="cvXlnHGQ_inCsWtSrldZ-47" style="edgeStyle=orthogonalEdgeStyle;rounded=0;orthogonalLoop=1;jettySize=auto;html=1;entryX=0;entryY=0.5;entryDx=0;entryDy=0;" edge="1" parent="1" source="cvXlnHGQ_inCsWtSrldZ-48" target="cvXlnHGQ_inCsWtSrldZ-56">
          <mxGeometry relative="1" as="geometry" />
        </mxCell>
        <mxCell id="cvXlnHGQ_inCsWtSrldZ-48" value="果农" style="shape=umlActor;verticalLabelPosition=bottom;verticalAlign=top;html=1;outlineConnect=0;" vertex="1" parent="1">
          <mxGeometry x="160" y="735" width="30" height="60" as="geometry" />
        </mxCell>
        <mxCell id="cvXlnHGQ_inCsWtSrldZ-49" style="edgeStyle=orthogonalEdgeStyle;rounded=0;orthogonalLoop=1;jettySize=auto;html=1;entryX=0;entryY=0.5;entryDx=0;entryDy=0;" edge="1" parent="1" source="cvXlnHGQ_inCsWtSrldZ-50" target="cvXlnHGQ_inCsWtSrldZ-56">
          <mxGeometry relative="1" as="geometry" />
        </mxCell>
        <mxCell id="cvXlnHGQ_inCsWtSrldZ-50" value="Actor" style="shape=umlActor;verticalLabelPosition=bottom;verticalAlign=top;html=1;outlineConnect=0;" vertex="1" parent="1">
          <mxGeometry x="160" y="865" width="30" height="60" as="geometry" />
        </mxCell>
        <mxCell id="cvXlnHGQ_inCsWtSrldZ-51" value="" style="edgeStyle=orthogonalEdgeStyle;rounded=0;orthogonalLoop=1;jettySize=auto;html=1;entryX=0;entryY=0.5;entryDx=0;entryDy=0;" edge="1" parent="1" source="cvXlnHGQ_inCsWtSrldZ-53" target="cvXlnHGQ_inCsWtSrldZ-56">
          <mxGeometry relative="1" as="geometry" />
        </mxCell>
        <mxCell id="cvXlnHGQ_inCsWtSrldZ-52" value="主动运送" style="edgeLabel;html=1;align=center;verticalAlign=middle;resizable=0;points=[];" vertex="1" connectable="0" parent="cvXlnHGQ_inCsWtSrldZ-51">
          <mxGeometry x="0.5318" y="-3" relative="1" as="geometry">
            <mxPoint as="offset" />
          </mxGeometry>
        </mxCell>
        <mxCell id="cvXlnHGQ_inCsWtSrldZ-53" value="果农" style="shape=umlActor;verticalLabelPosition=bottom;verticalAlign=top;html=1;outlineConnect=0;" vertex="1" parent="1">
          <mxGeometry x="160" y="585" width="30" height="60" as="geometry" />
        </mxCell>
        <mxCell id="cvXlnHGQ_inCsWtSrldZ-54" value="" style="edgeStyle=orthogonalEdgeStyle;rounded=0;orthogonalLoop=1;jettySize=auto;html=1;" edge="1" parent="1" source="cvXlnHGQ_inCsWtSrldZ-56" target="cvXlnHGQ_inCsWtSrldZ-57">
          <mxGeometry relative="1" as="geometry">
            <mxPoint x="680" y="765" as="targetPoint" />
          </mxGeometry>
        </mxCell>
        <mxCell id="cvXlnHGQ_inCsWtSrldZ-55" value="交易" style="edgeLabel;html=1;align=center;verticalAlign=middle;resizable=0;points=[];" vertex="1" connectable="0" parent="cvXlnHGQ_inCsWtSrldZ-54">
          <mxGeometry x="-0.025" y="-2" relative="1" as="geometry">
            <mxPoint as="offset" />
          </mxGeometry>
        </mxCell>
        <mxCell id="cvXlnHGQ_inCsWtSrldZ-56" value="收购点" style="whiteSpace=wrap;html=1;verticalAlign=top;" vertex="1" parent="1">
          <mxGeometry x="480" y="735" width="120" height="60" as="geometry" />
        </mxCell>
        <mxCell id="cvXlnHGQ_inCsWtSrldZ-57" value="Actor" style="shape=umlActor;verticalLabelPosition=bottom;verticalAlign=top;html=1;outlineConnect=0;" vertex="1" parent="1">
          <mxGeometry x="710" y="735" width="30" height="60" as="geometry" />
        </mxCell>
      </root>
    </mxGraphModel>
  </diagram>
</mxfile>
